<?xml version="1.0" encoding="UTF-8" standalone="no"?>
<!-- Created with Inkscape (http://www.inkscape.org/) -->

<svg
   xmlns:dc="http://purl.org/dc/elements/1.1/"
   xmlns:cc="http://creativecommons.org/ns#"
   xmlns:rdf="http://www.w3.org/1999/02/22-rdf-syntax-ns#"
   xmlns:svg="http://www.w3.org/2000/svg"
   xmlns="http://www.w3.org/2000/svg"
   xmlns:xlink="http://www.w3.org/1999/xlink"
   xmlns:sodipodi="http://sodipodi.sourceforge.net/DTD/sodipodi-0.dtd"
   xmlns:inkscape="http://www.inkscape.org/namespaces/inkscape"
   width="81.826065mm"
   height="54.449139mm"
   viewBox="0 0 289.93488 192.93002"
   id="svg2"
   version="1.1"
   inkscape:version="0.91 r13725"
   sodipodi:docname="logo1.svg"
   inkscape:export-filename="/home/chris/Documents/Udacity/google-front-end/portfolio/images/logo-200.png"
   inkscape:export-xdpi="49.712948"
   inkscape:export-ydpi="49.712948">
  <defs
     id="defs4">
    <linearGradient
       inkscape:collect="always"
       id="linearGradient4646">
      <stop
         style="stop-color:#000000;stop-opacity:1;"
         offset="0"
         id="stop4648" />
      <stop
         style="stop-color:#000000;stop-opacity:0;"
         offset="1"
         id="stop4650" />
    </linearGradient>
    <linearGradient
       inkscape:collect="always"
       xlink:href="#linearGradient4646"
       id="linearGradient4652"
       x1="-69.609772"
       y1="128.7908"
       x2="288.18121"
       y2="128.7908"
       gradientUnits="userSpaceOnUse"
       gradientTransform="translate(25.389724,71.96865)" />
  </defs>
  <sodipodi:namedview
     id="base"
     pagecolor="#ffffff"
     bordercolor="#666666"
     borderopacity="1.0"
     inkscape:pageopacity="0.0"
     inkscape:pageshadow="2"
     inkscape:zoom="1.4"
     inkscape:cx="212.76069"
     inkscape:cy="57.407289"
     inkscape:document-units="px"
     inkscape:current-layer="layer1"
     showgrid="false"
     showguides="false"
     inkscape:window-width="1920"
     inkscape:window-height="1031"
     inkscape:window-x="0"
     inkscape:window-y="25"
     inkscape:window-maximized="1"
     fit-margin-top="0"
     fit-margin-left="0"
     fit-margin-right="0"
     fit-margin-bottom="0" />
  <metadata
     id="metadata7">
    <rdf:RDF>
      <cc:Work
         rdf:about="">
        <dc:format>image/svg+xml</dc:format>
        <dc:type
           rdf:resource="http://purl.org/dc/dcmitype/StillImage" />
        <dc:title></dc:title>
      </cc:Work>
    </rdf:RDF>
  </metadata>
  <g
     inkscape:label="Layer 1"
     inkscape:groupmode="layer"
     id="layer1"
     transform="translate(-25.389724,-71.96865)">
    <path
       style="opacity:1;fill:url(#linearGradient4652);fill-opacity:1;stroke:#000000;stroke-width:2.86308837;stroke-linejoin:round;stroke-miterlimit:4;stroke-dasharray:none;stroke-dashoffset:0;stroke-opacity:1"
       id="path4644"
       sodipodi:type="arc"
       sodipodi:cx="170.35715"
       sodipodi:cy="168.43364"
       sodipodi:rx="143.53314"
       sodipodi:ry="94.973564"
       sodipodi:start="5.6817623"
       sodipodi:end="5.6776782"
       sodipodi:open="true"
       d="M 288.70471,114.69604 A 143.53314,94.973564 0 0 1 251.69134,246.68741 143.53314,94.973564 0 0 1 52.175669,222.33103 143.53314,94.973564 0 0 1 88.781621,90.289934 143.53314,94.973564 0 0 1 288.37204,114.37667"
       inkscape:export-xdpi="89.980438"
       inkscape:export-ydpi="89.980438" />
    <g
       id="g4638"
       transform="matrix(0.80088353,0,0,0.77573753,-288.4347,85.425799)"
       inkscape:export-xdpi="89.980438"
       inkscape:export-ydpi="89.980438">
      <path
         inkscape:connector-curvature="0"
         d="m 595.88705,52.929803 c -0.212,-0.45942 -0.46821,-0.89646 -0.74629,-1.31854 -0.32808,-0.5001 -0.73796,-0.93413 -1.17287,-1.34131 -0.50188,-0.47124 -1.09084,-0.82045 -1.7012,-1.12974 -0.79755,-0.38146 -1.65929,-0.56582 -2.52952,-0.68351 -1.15848,-0.13836 -2.31215,8.8e-4 -3.44929,0.22275 -5.04615,1.36105 -12.26914,4.87745 10.83615,-4.81545 0.50648,-0.21247 -0.97798,0.50073 -1.45789,0.76788 -1.55116,0.88435 -2.88762,2.05958 -4.1021,3.35664 -1.18854,1.2992 -1.98899,2.83605 -2.54317,4.49305 -0.48682,1.61092 -0.48936,3.27429 -0.3054,4.9297 0.20268,1.57108 0.75017,3.05249 1.43593,4.46989 0.65915,1.28802 1.55596,2.42055 2.56077,3.45277 0.93123,0.92314 2,1.68437 3.08984,2.40583 0.93155,0.61201 1.90378,1.15721 2.8851,1.68426 0.78942,0.41817 1.61223,0.7671 2.4402,1.10039 0.63876,0.2541 1.28493,0.48887 1.93262,0.71904 0.48021,0.16988 0.9623,0.33438 1.44484,0.49752 0.33727,0.11059 0.67254,0.22673 1.00465,0.35196 0.22244,0.0943 0.4347,0.21322 0.62597,0.36091 0.029,0.0263 0.058,0.0526 0.087,0.0789 0,0 -13.7734,5.84646 -13.7734,5.84646 l 0,0 c -0.0298,-0.0259 -0.0596,-0.0519 -0.0894,-0.0778 -0.18916,-0.14691 -0.39667,-0.26922 -0.61635,-0.365 -0.3242,-0.12888 -0.6511,-0.25049 -0.98184,-0.36164 -0.47479,-0.16655 -0.94912,-0.33439 -1.4216,-0.50739 -0.63807,-0.23463 -1.27461,-0.47368 -1.90384,-0.73125 -0.81747,-0.33843 -1.63065,-0.69075 -2.40867,-1.11378 -0.97036,-0.53294 -1.93295,-1.08145 -2.85357,-1.69764 -1.08147,-0.72693 -2.14413,-1.49019 -3.06815,-2.41504 -1.00001,-1.03478 -1.89072,-2.17011 -2.54051,-3.46137 -0.68077,-1.4199 -1.22272,-2.90482 -1.42057,-4.47641 -0.17866,-1.65704 -0.17761,-3.32229 0.31402,-4.93336 0.55935,-1.65973 1.36541,-3.19782 2.55764,-4.49919 1.21071,-1.29149 2.53967,-2.46579 4.084,-3.34896 5.62156,-3.13775 11.62631,-5.69695 17.80602,-7.49147 1.15195,-0.22807 2.32113,-0.37499 3.49612,-0.24262 0.88065,0.11222 1.75283,0.29231 2.56302,0.66929 0.61683,0.30521 1.21373,0.64865 1.71987,1.12182 0.43701,0.40696 0.85031,0.83907 1.18563,1.33588 0.28093,0.42081 0.54065,0.85609 0.75765,1.31373 0,0 -13.74133,5.83284 -13.74133,5.83284 z"
         id="path4622"
         style="opacity:1;fill:#000000;fill-opacity:1;stroke:#000000;stroke-width:3.5;stroke-linejoin:round;stroke-miterlimit:4;stroke-dasharray:none;stroke-dashoffset:0;stroke-opacity:1" />
      <path
         inkscape:connector-curvature="0"
         d="m 621.20794,52.226168 c 0.61579,-0.54236 1.31415,-0.97614 2.01801,-1.39274 1.07954,-0.63493 2.21271,-1.17051 3.347,-1.69866 5.84808,-2.5828 11.68043,-5.22814 17.67928,-7.44206 1.40785,-0.51588 2.84369,-0.94828 4.28731,-1.35097 1.39573,-0.3976 2.81778,-0.68419 4.25188,-0.89963 1.31144,-0.19625 2.62939,-0.21546 3.93574,0.008 1.22932,0.24644 2.14957,0.924 2.88045,1.91367 0.86038,1.38914 0.90337,2.99426 0.83585,4.57643 -0.20929,2.51982 -1.06468,4.91008 -1.94202,7.26045 -1.28985,3.32392 -2.88208,6.51657 -4.49816,9.69057 -2.04649,3.95268 -4.1974,7.84997 -6.3288,11.75716 -2.48517,4.52385 -4.94492,9.06152 -7.40419,13.59947 -2.66049,4.90092 -5.29032,9.81844 -7.89194,14.750842 -2.59088,4.87938 -5.03969,9.83127 -7.41628,14.81787 -2.18354,4.55554 -4.16926,9.20018 -6.03905,13.89197 -1.56091,3.96726 -2.94186,8.00106 -4.22568,12.06538 -0.99713,3.17034 -1.87851,6.37485 -2.65196,9.60664 0,0 -13.38053,5.6797 -13.38053,5.6797 l 0,0 c 0.82613,-3.25053 1.7473,-6.47588 2.78844,-9.66458 1.33424,-4.08097 2.75769,-8.13305 4.354,-12.11984 1.9057,-4.70261 3.92319,-9.359 6.12849,-13.92993 2.39341,-4.98909 4.85628,-9.94453 7.4509,-14.83258 2.59618,-4.9238 5.21545,-9.835402 7.85598,-14.735572 2.43272,-4.52326 4.86524,-9.0466 7.31403,-13.5612 2.096,-3.888 4.20792,-7.76832 6.20913,-11.70635 1.57343,-3.15276 3.12531,-6.32355 4.35527,-9.62993 0.83302,-2.33167 1.63739,-4.70454 1.79047,-7.19612 0.0312,-1.57677 -0.0553,-3.16725 -0.93362,-4.53493 -0.7394,-0.97693 -1.65586,-1.66073 -2.8793,-1.91416 -1.29755,-0.2293 -2.60776,-0.21142 -3.91171,-0.0184 -1.42972,0.21275 -2.84729,0.49821 -4.23859,0.89399 -1.44349,0.40254 -2.87918,0.83486 -4.28683,1.35077 -0.62465,0.23057 -0.78041,0.28427 -1.39954,0.52793 -0.23037,0.0907 -0.91691,0.37396 -0.68916,0.27691 22.38185,-9.53687 16.27073,-6.99271 11.60621,-4.90714 -1.11558,0.51994 -2.23017,1.04721 -3.29044,1.67465 -0.68366,0.40775 -1.36147,0.83313 -1.95609,1.36646 0,0 -13.72455,5.82573 -13.72455,5.82573 z"
         id="path4624"
         style="opacity:1;fill:#000000;fill-opacity:1;stroke:#000000;stroke-width:3.5;stroke-linejoin:round;stroke-miterlimit:4;stroke-dasharray:none;stroke-dashoffset:0;stroke-opacity:1" />
      <path
         inkscape:connector-curvature="0"
         d="m 710.93817,61.032781 c -0.81188,0.58054 -1.60682,1.18431 -2.40807,1.77935 -1.6137,1.20849 -3.21976,2.42714 -4.82732,3.64378 -2.59407,1.98546 -5.1952,3.96155 -7.81745,5.90966 -3.51248,2.60424 -7.09196,5.11541 -10.69787,7.58799 -4.23255,2.87951 -8.52906,5.66323 -12.84356,8.41786 -4.65222,2.96543 -9.36546,5.83309 -14.09696,8.66973 -4.68831,2.7989 -9.42757,5.511159 -14.20117,8.161589 -4.2881,2.3941 -8.65433,4.64179 -13.05385,6.82275 -7.90025,3.8322 -16.00924,7.23043 -24.15781,10.49468 -2.68049,1.0666 -5.43332,1.93071 -8.24312,2.57959 -1.67333,0.37098 -3.37612,0.5838 -5.08964,0.50394 -0.72439,-0.0864 -1.57328,-0.1566 -2.04305,-0.78426 -0.20242,-0.63465 0.50594,-0.96362 0.96648,-1.20542 6.13266,-2.84293 11.41351,-5.97151 17.86635,-6.72339 2.65481,-0.28004 5.32624,-0.25281 7.99028,-0.17378 3.73915,0.12978 7.45325,0.58261 11.15004,1.1352 4.27546,0.65711 8.47809,1.69275 12.6511,2.81596 4.31128,1.17518 8.55474,2.5777 12.78143,4.02315 4.11285,1.42357 8.21609,2.87442 12.33967,4.26683 4.02009,1.37402 8.10258,2.54857 12.21208,3.62107 3.76045,0.9706 7.55937,1.77753 11.36825,2.53131 2.2497,0.43058 1.13582,0.21795 3.34163,0.63795 0,0 -13.32727,5.65708 -13.32727,5.65708 l 0,0 c -2.17966,-0.43125 -1.07883,-0.21307 -3.30247,-0.65456 -3.77944,-0.77316 -7.54961,-1.59439 -11.28346,-2.5673 -4.10182,-1.08063 -8.1793,-2.25349 -12.19327,-3.62906 -4.11775,-1.39393 -8.21479,-2.84716 -12.32091,-4.27479 -4.22394,-1.45004 -8.46593,-2.85415 -12.77734,-4.02488 -4.19079,-1.11979 -8.41166,-2.15041 -12.70605,-2.79265 -3.73891,-0.54242 -7.49571,-0.97904 -11.27608,-1.08169 -2.72586,-0.0588 -5.45887,-0.0622 -8.17186,0.25086 -5.92809,0.74702 -14.36176,4.72065 9.34409,-4.82676 -0.46022,0.24434 -1.08856,0.55979 -0.91079,1.18178 0.42024,0.63479 1.22724,0.73783 1.92895,0.83269 1.65734,0.10735 3.30712,-0.085 4.92881,-0.43567 2.75238,-0.62219 5.44737,-1.46366 8.07066,-2.50639 5.33791,-2.13616 3.39072,-1.37046 -9.90179,4.25238 -0.60426,0.25561 1.20407,-0.52167 1.80308,-0.78934 1.24224,-0.55512 2.58508,-1.18011 3.81157,-1.76511 0.67127,-0.32018 1.33916,-0.6474 2.00875,-0.9711 4.43422,-2.19502 8.83539,-4.4565 13.15731,-6.86667 4.7869,-2.65465 9.53928,-5.37154 14.23919,-8.17773 4.72032,-2.830189 9.42186,-5.692269 14.06089,-8.654419 4.28631,-2.74117 8.5544,-5.5118 12.75654,-8.38092 3.55987,-2.45088 7.09357,-4.93995 10.55578,-7.52768 2.56379,-1.92007 5.10564,-3.86896 7.63613,-5.83269 1.55312,-1.19123 3.10383,-2.38562 4.66006,-3.57278 0.76324,-0.57711 1.52001,-1.16289 2.291,-1.72966 0,0 13.73104,-5.82848 13.73104,-5.82848 z"
         id="path4626"
         style="opacity:1;fill:#000000;fill-opacity:1;stroke:#000000;stroke-width:3.5;stroke-linejoin:round;stroke-miterlimit:4;stroke-dasharray:none;stroke-dashoffset:0;stroke-opacity:1" />
      <path
         inkscape:connector-curvature="0"
         d="m 434.66687,173.83213 c 0.54709,-0.48042 1.08636,-0.97662 1.62796,-1.46804 0.84,-0.76595 1.66814,-1.55463 2.49416,-2.34718 1.11786,-1.08387 2.22885,-2.18036 3.33536,-3.28485 1.35689,-1.35288 2.70707,-2.71774 4.05652,-4.08388 1.54017,-1.55933 3.07309,-3.1314 4.61177,-4.69335 1.65419,-1.6954 3.31503,-3.37914 4.96847,-5.07582 1.70621,-1.72935 3.38965,-3.49784 5.05913,-5.29 1.68257,-1.81359 3.32534,-3.69119 4.95544,-5.58811 1.61898,-1.88256 3.19581,-3.82844 4.76586,-5.78329 1.51232,-1.89473 2.99556,-3.83022 4.46344,-5.78627 1.42196,-1.88189 2.78502,-3.84066 4.12697,-5.82415 1.33935,-1.97155 2.61727,-4.01457 3.86578,-6.08929 1.28027,-2.14047 2.50071,-4.34238 3.7011,-6.56348 1.18005,-2.19492 2.3195,-4.42823 3.43039,-6.6866 1.04981,-2.11978 2.03744,-4.29224 3.00748,-6.478347 0.92468,-2.088773 1.78791,-4.22384 2.62891,-6.374412 0.82387,-2.116402 1.58026,-4.277553 2.31812,-6.449391 0.70529,-2.071465 1.35129,-4.177198 1.96577,-6.29936 0.55854,-1.960841 1.06662,-3.946263 1.57309,-5.931923 0.46016,-1.841364 0.92047,-3.682569 1.39131,-5.51911 0.42585,-1.664891 0.84876,-3.331088 1.27591,-4.995389 0.38372,-1.467339 0.7749,-2.931115 1.18227,-4.38701 0.35083,-1.236935 0.70139,-2.474001 1.04795,-3.713097 0.26797,-0.994831 0.55971,-1.977287 0.86367,-2.953269 0.23254,-0.741612 0.47501,-1.477527 0.71983,-2.211996 0.17938,-0.539008 0.36879,-1.071785 0.53259,-1.619734 0.11327,-0.386227 0.21037,-0.780355 0.30276,-1.176238 0.0654,-0.282426 0.12572,-0.566789 0.18484,-0.851613 0.0423,-0.204832 0.0833,-0.410177 0.12378,-0.615651 0.0275,-0.141479 0.0546,-0.283036 0.0852,-0.423311 0.0114,-0.04863 0.0294,-0.10178 0.0429,-0.145724 15.04653,-8.794505 12.18244,-10.065355 10.30439,-4.801924 -0.0991,0.272239 -0.17234,0.557742 -0.22481,0.851765 -0.0438,0.266006 -0.0605,0.53789 -0.0757,0.808908 -0.0174,0.369048 -0.0255,0.738757 -0.032,1.108392 -0.006,0.500072 0.0384,0.996108 0.0899,1.490266 0.0733,0.643364 0.19355,1.273994 0.31324,1.903961 0.14631,0.778885 0.31348,1.55068 0.49022,2.318107 0.19172,0.852203 0.40408,1.695642 0.6234,2.53573 0.25054,0.889373 0.51433,1.771952 0.78369,2.651381 0.29216,0.920668 0.59862,1.832844 0.91514,2.738932 0.33773,0.970366 0.69303,1.929532 1.04355,2.891692 0.37991,1.041225 0.76605,2.078335 1.15242,3.115295 0.41005,1.10269 0.80805,2.213269 1.18697,3.335704 0.40394,1.183507 0.77152,2.388161 1.14167,3.59101 0.37457,1.238196 0.74372,2.479313 1.12028,3.716427 0.38415,1.284217 0.80836,2.546109 1.23136,3.808021 0.42852,1.268855 0.87524,2.526477 1.33605,3.77487 0.44729,1.205864 0.9145,2.398065 1.37793,3.59287 0.42459,1.075025 0.86233,2.140629 1.2877,3.2151 0.35604,0.908983 0.71056,1.819162 1.0518,2.738274 0.27134,0.756296 0.56145,1.500099 0.85542,2.240987 0.22146,0.563297 0.42384,1.139391 0.62119,1.718331 0.14668,0.446937 0.29832,0.890708 0.45646,1.330595 0.13033,0.360294 0.26512,0.717662 0.40081,1.074388 0.0971,0.237614 0.19601,0.475548 0.31494,0.695178 0.0769,0.14976 0.17212,0.233276 0.30708,0.24203 0.0924,-0.01902 0.0457,-0.0035 0.13948,-0.0489 -3.525,1.966673 -7.03958,3.967145 -10.57502,5.900015 -0.10033,0.0549 0.17439,-0.17226 0.26022,-0.26077 0.21448,-0.22119 0.28658,-0.30626 0.49444,-0.53834 0.54697,-0.60506 1.03726,-1.29075 1.51866,-1.9861 0.60979,-0.886831 1.1894,-1.809523 1.76264,-2.738585 0.68971,-1.119375 1.36214,-2.257489 2.02893,-3.401363 0.75342,-1.293654 1.50601,-2.588187 2.2517,-3.889819 0.81373,-1.427533 1.61986,-2.862824 2.42711,-4.296923 0.85482,-1.541417 1.70459,-3.087859 2.55452,-4.634106 0.87947,-1.617497 1.75854,-3.235397 2.62793,-4.862631 0.86632,-1.607303 1.72171,-3.225009 2.57264,-4.846923 0.77104,-1.487613 1.53554,-2.981373 2.29042,-4.483745 0.63082,-1.276105 1.27732,-2.538107 1.91323,-3.80966 0.50615,-1.014674 1.00618,-2.034785 1.50486,-3.056051 0.37485,-0.768303 0.74804,-1.538048 1.12083,-2.308142 0.27342,-0.564996 0.54638,-1.130389 0.81922,-1.695886 0.19825,-0.41094 0.39636,-0.821995 0.59445,-1.233079 0.1434,-0.297621 0.28676,-0.595273 0.43012,-0.892934 0.11643,-0.230159 0.25242,-0.440625 0.39147,-0.646493 0.12072,-0.182822 0.23084,-0.377412 0.33931,-0.573272 0.1131,-0.199288 0.22745,-0.397297 0.34188,-0.595215 0.10427,-0.179352 0.21037,-0.356477 0.30511,-0.54517 0.11212,-0.208551 0.21729,-0.422853 0.33576,-0.625151 0.12147,-0.202821 0.25508,-0.391364 0.37336,-0.59758 0.0815,-0.14421 0.15228,-0.29849 0.22419,-0.451213 3.57081,-4.450682 12.53316,-10.734094 10.43735,-5.002565 -0.30984,0.85924 -0.58601,1.739226 -0.85567,2.622057 -0.34188,1.123642 -0.63364,2.272093 -0.91198,3.426107 -0.38322,1.600858 -0.7188,3.221116 -1.04268,4.844932 -0.43561,2.173791 -0.83412,4.360134 -1.21865,6.55094 -0.45562,2.597219 -0.8367,5.215843 -1.18899,7.841145 -0.37925,2.926926 -0.70383,5.865843 -1.00697,8.808384 -0.34162,3.231715 -0.56854,6.48147 -0.74152,9.736215 -0.17963,3.392153 -0.1712,6.792668 -0.0848,10.189009 0.092,3.378557 0.377,6.738037 0.73305,10.082597 0.33902,3.17565 0.86126,6.30537 1.46247,9.40821 0.57716,2.90738 1.33645,5.7397 2.15425,8.53902 0.75619,2.55189 1.6432,5.02746 2.58601,7.46381 0.84079,2.15089 1.7656,4.24006 2.71744,6.30556 0.79048,1.69762 1.61981,3.36194 2.4568,5.01892 0.63902,1.26121 1.2881,2.51322 1.93955,3.76298 0.4806,0.92103 0.96399,1.83947 1.44806,2.75726 0.35133,0.67162 0.71165,1.33488 1.05867,2.01055 0.0466,0.0988 0.0931,0.19766 0.13959,0.2965 0,0 -10.84223,6.15556 -10.84223,6.15556 l 0,0 c -0.0457,-0.0993 -0.0913,-0.19863 -0.13706,-0.29794 -0.34008,-0.67865 -0.68843,-1.34984 -1.03096,-2.02629 -0.47093,-0.92533 -0.94126,-1.85123 -1.40915,-2.77933 -0.63447,-1.25975 -1.26686,-2.5214 -1.89039,-3.7909 -0.81757,-1.66907 -1.62836,-3.34441 -2.40493,-5.04835 -0.93699,-2.07499 -1.84978,-4.17108 -2.679,-6.32739 -0.93271,-2.44274 -1.80986,-4.92427 -2.5552,-7.4813 -0.80921,-2.80469 -1.55965,-5.64197 -2.13119,-8.55212 -0.59535,-3.10703 -1.10836,-6.24165 -1.44066,-9.42059 -0.35098,-3.3469 -0.62922,-6.70862 -0.72321,-10.08819 -0.0868,-3.39487 -0.0982,-6.794001 0.0779,-10.185022 0.16718,-3.248833 0.38424,-6.493366 0.71423,-9.720723 0.29356,-2.935648 0.60277,-5.868986 0.97333,-8.789288 0.34138,-2.618068 0.71368,-5.228911 1.1535,-7.820992 0.36742,-2.178211 0.7481,-4.352298 1.15855,-6.516819 0.30479,-1.61211 0.62169,-3.220673 0.98402,-4.811631 0.26549,-1.146985 0.5431,-2.289439 0.87558,-3.405443 0.26245,-0.881529 0.53242,-1.760083 0.84196,-2.614274 1.78894,-4.869661 13.18832,-12.415723 11.28661,-7.330989 -0.0771,0.153422 -0.15057,0.310493 -0.23489,0.45729 -0.12069,0.206106 -0.25587,0.39544 -0.37789,0.60015 -0.117,0.200955 -0.22033,0.414125 -0.33021,0.622002 -0.0951,0.189739 -0.20217,0.367138 -0.30771,0.546643 -0.11446,0.196874 -0.22878,0.393951 -0.33999,0.594145 -0.10972,0.196009 -0.22089,0.390891 -0.34195,0.574766 -0.14119,0.206794 -0.27932,0.418271 -0.39758,0.649961 -0.14763,0.300088 -0.29529,0.60017 -0.44296,0.900227 -0.20397,0.414404 -0.40795,0.828784 -0.61205,1.243074 -0.2808,0.569947 -0.56169,1.139814 -0.84295,1.709359 -0.38318,0.775746 -0.76666,1.551213 -1.15146,2.325526 -0.51083,1.027288 -1.0227,2.053657 -1.53942,3.075671 -0.64705,1.277291 -1.30449,2.545126 -1.94543,3.82795 -0.76396,1.506446 -1.53764,3.004081 -2.31532,4.497885 -0.85543,1.622337 -1.71262,3.243009 -2.58189,4.852169 -0.86778,1.625368 -1.74308,3.243493 -2.62125,4.858839 -0.84591,1.544277 -1.69183,3.08855 -2.54306,4.6276 -0.80129,1.431436 -1.60251,2.863021 -2.41064,4.28757 -0.7404,1.296961 -1.48531,2.589301 -2.23272,3.879047 -0.6596,1.138134 -1.32388,2.271604 -2.00448,3.38748 -0.56431,0.922362 -1.13408,1.839503 -1.7333,2.721933 -0.47433,0.692066 -0.95754,1.374903 -1.49911,1.974992 -3.39297,3.786152 -7.77592,5.887522 -12.04537,7.282852 -0.13509,-0.007 -0.22853,-0.0913 -0.30151,-0.2452 -0.11154,-0.22523 -0.20865,-0.46275 -0.29915,-0.70414 -0.13167,-0.35908 -0.26265,-0.71865 -0.39014,-1.08044 -0.15491,-0.44178 -0.30655,-0.88554 -0.44584,-1.33662 -0.18975,-0.58299 -0.38462,-1.163227 -0.59876,-1.731071 -0.28643,-0.745451 -0.57022,-1.492917 -0.83622,-2.251889 -0.33483,-0.9225 -0.67786,-1.839675 -1.02938,-2.751001 -0.41975,-1.077621 -0.84955,-2.148128 -1.2707,-3.224756 -0.45923,-1.197321 -0.92286,-2.391681 -1.36862,-3.598152 -0.46068,-1.248416 -0.9073,-2.506185 -1.33513,-3.775397 -0.42492,-1.260784 -0.84909,-2.522661 -1.23519,-3.805837 -0.37943,-1.235506 -0.75081,-2.475377 -1.12574,-3.71333 -0.37035,-1.202764 -0.73885,-2.406976 -1.14705,-3.587959 -0.38117,-1.121286 -0.78259,-2.229826 -1.19509,-3.331084 -0.38919,-1.035373 -0.77567,-2.072558 -1.16173,-3.110026 -0.3535,-0.960424 -0.71013,-1.918909 -1.05206,-2.886853 -0.31964,-0.904187 -0.62626,-1.816375 -0.92004,-2.736146 -0.27148,-0.878165 -0.53808,-1.759187 -0.79073,-2.647384 -0.22255,-0.838338 -0.43391,-1.681924 -0.62956,-2.532237 -0.17943,-0.765411 -0.35325,-1.533495 -0.50516,-2.309624 -0.12545,-0.626424 -0.2501,-1.253694 -0.33111,-1.893822 -0.0561,-0.491157 -0.10427,-0.984267 -0.10409,-1.48224 0.003,-0.367072 0.005,-0.734309 0.019,-1.101005 0.0111,-0.270271 0.0271,-0.541376 0.071,-0.806206 0.0546,-0.300769 0.13672,-0.589622 0.2453,-0.863397 2.08207,-5.359071 5.09062,-4.483163 11.48239,-7.567302 -0.0198,0.04824 -0.0415,0.09774 -0.0538,0.151919 -0.0356,0.140959 -0.0646,0.284408 -0.0936,0.428045 -0.0432,0.206968 -0.0867,0.4138 -0.1316,0.620086 -0.0628,0.286975 -0.12688,0.573458 -0.19588,0.857887 -0.0977,0.399197 -0.20024,0.796524 -0.3191,1.185514 -0.17181,0.551886 -0.36838,1.08866 -0.55439,1.632111 -0.25374,0.739169 -0.50503,1.4799 -0.74588,2.226784 -0.31417,0.980999 -0.61531,1.969088 -0.89283,2.969823 -0.35685,1.243433 -0.71542,2.48598 -1.0746,3.728216 -0.41474,1.460186 -0.81561,2.927255 -1.20497,4.399913 -0.43582,1.667769 -0.8642,3.338925 -1.2977,5.00776 -0.47609,1.83992 -0.94341,3.683775 -1.40835,5.528783 -0.51174,1.989544 -1.02612,3.978392 -1.59127,5.942239 -0.62125,2.125005 -1.27385,4.233459 -1.98293,6.309103 -0.73991,2.172864 -1.4986,4.334883 -2.32386,6.452645 -0.8416,2.152877 -1.70686,4.289279 -2.6352,6.377988 -0.97632,2.190214 -1.97062,4.366298 -3.02713,6.489508 -1.11579,2.258824 -2.25782,4.494474 -3.44014,6.692134 -1.20019,2.21846 -2.41829,4.41987 -3.69572,6.56041 -1.24598,2.0748 -2.52169,4.11768 -3.86096,6.08657 -1.34421,1.98611 -2.71059,3.94613 -4.13588,5.82921 -1.47134,1.95813 -2.95826,3.89535 -4.47394,5.79222 -1.57316,1.95557 -3.15267,3.90273 -4.77358,5.78768 -1.62916,1.89609 -3.27059,3.7735 -4.95222,5.58629 -1.66839,1.79113 -3.3506,3.5588 -5.05533,5.28784 -1.64833,1.69277 -3.30358,3.37341 -4.95179,5.06636 -1.52881,1.55559 -3.05189,3.12123 -4.5812,4.67597 -1.33619,1.3577 -2.67309,2.71416 -4.0156,4.06066 -1.08989,1.09406 -2.18421,2.18027 -3.28433,3.25588 -0.80842,0.78105 -1.61833,1.5594 -2.43961,2.31621 -0.52673,0.48238 -1.05082,0.97009 -1.58268,1.44233 0,0 -10.8499,6.15992 -10.8499,6.15992 z"
         id="path4636"
         style="opacity:1;fill:#000000;fill-opacity:1;stroke:#000000;stroke-width:3.20069098;stroke-linejoin:round;stroke-miterlimit:4;stroke-dasharray:none;stroke-dashoffset:0;stroke-opacity:1" />
    </g>
  </g>
</svg>
